<?xml version="1.0" standalone="no"?>
<!DOCTYPE svg PUBLIC "-//W3C//DTD SVG 20010904//EN"
 "http://www.w3.org/TR/2001/REC-SVG-20010904/DTD/svg10.dtd">
<svg version="1.0" xmlns="http://www.w3.org/2000/svg"
 width="366.000000pt" height="91.000000pt" viewBox="0 0 366.000000 91.000000"
 preserveAspectRatio="xMidYMid meet">

<g transform="translate(0.000000,91.000000) scale(0.100000,-0.100000)"
fill="#000000" stroke="none">
<path d="M334 736 c-8 -21 74 -126 92 -119 20 8 18 14 -27 76 -41 58 -56 68
-65 43z"/>
<path d="M537 694 c-35 -50 -42 -84 -19 -84 5 0 28 27 52 61 34 49 40 63 29
70 -21 13 -21 13 -62 -47z"/>
<path d="M288 708 c-15 -12 -12 -19 28 -75 40 -55 48 -61 64 -51 18 11 17 14
-11 52 -64 88 -63 88 -81 74z"/>
<path d="M586 659 c-42 -58 -45 -65 -30 -76 15 -11 23 -5 62 48 41 54 43 62
29 76 -14 14 -20 9 -61 -48z"/>
<path d="M243 673 c-7 -3 -13 -9 -13 -14 0 -14 80 -119 91 -119 23 0 17 27
-16 76 -42 61 -45 63 -62 57z"/>
<path d="M637 624 c-35 -50 -42 -84 -19 -84 5 0 28 26 50 58 31 45 38 62 30
70 -18 18 -20 16 -61 -44z"/>
<path d="M2022 590 c-68 -42 -91 -125 -53 -198 25 -49 67 -72 131 -72 76 0
148 43 116 69 -12 10 -20 8 -43 -8 -69 -49 -166 -12 -179 69 -15 94 117 159
185 91 15 -15 21 -16 35 -5 17 12 16 14 -4 34 -44 44 -132 54 -188 20z"/>
<path d="M2750 592 c-72 -36 -100 -122 -64 -198 48 -101 211 -99 259 3 61 128
-69 259 -195 195z m113 -33 c55 -28 75 -108 41 -158 -60 -85 -194 -43 -194 61
0 32 7 47 34 74 36 36 77 44 119 23z"/>
<path d="M3059 589 c-94 -55 -97 -193 -6 -250 49 -31 137 -23 177 16 77 74 58
202 -36 241 -47 20 -93 17 -135 -7z m147 -53 c24 -24 34 -43 34 -65 0 -103
-116 -155 -183 -82 -33 35 -41 73 -23 115 18 44 51 66 99 66 31 0 46 -7 73
-34z"/>
<path d="M950 460 c0 -133 1 -140 20 -140 18 0 20 7 20 65 l0 65 50 0 c37 0
55 5 70 20 28 28 26 75 -5 105 -21 22 -33 25 -90 25 l-65 0 0 -140z m131 78
c10 -18 8 -24 -11 -40 -12 -10 -35 -18 -51 -18 -27 0 -29 3 -29 40 0 40 0 40
40 40 30 0 42 -5 51 -22z"/>
<path d="M1160 460 c0 -133 1 -140 20 -140 18 0 20 7 20 63 l1 62 22 -25 c12
-14 36 -43 52 -64 23 -28 37 -37 54 -34 21 3 20 6 -24 62 -41 54 -44 61 -28
69 48 25 59 89 20 125 -18 17 -36 22 -80 22 l-57 0 0 -140z m110 85 c17 -20 3
-54 -25 -61 -34 -8 -45 2 -45 42 0 31 3 34 29 34 16 0 34 -7 41 -15z"/>
<path d="M1400 460 l0 -140 80 0 c73 0 80 2 80 20 0 18 -7 20 -60 20 l-60 0 0
45 0 45 60 0 c53 0 60 2 60 20 0 18 -7 20 -60 20 l-60 0 0 35 0 35 60 0 c53 0
60 2 60 20 0 18 -7 20 -80 20 l-80 0 0 -140z"/>
<path d="M1600 460 l0 -140 65 0 c93 0 131 18 156 76 15 33 19 56 14 82 -17
90 -61 122 -169 122 l-66 0 0 -140z m158 75 c34 -29 46 -71 31 -115 -13 -37
-54 -60 -109 -60 l-40 0 0 100 0 100 44 0 c33 0 52 -7 74 -25z"/>
<path d="M1880 460 c0 -133 1 -140 20 -140 19 0 20 7 20 140 0 133 -1 140 -20
140 -19 0 -20 -7 -20 -140z"/>
<path d="M2250 580 c0 -17 7 -20 40 -20 l40 0 0 -120 c0 -113 1 -120 20 -120
19 0 20 7 20 120 l0 120 40 0 c33 0 40 3 40 20 0 19 -7 20 -100 20 -93 0 -100
-1 -100 -20z"/>
<path d="M2490 460 c0 -133 1 -140 20 -140 18 0 20 7 20 65 l0 65 55 0 c48 0
55 2 55 20 0 18 -7 20 -55 20 l-55 0 0 35 0 35 55 0 c48 0 55 2 55 20 0 18 -7
20 -75 20 l-75 0 0 -140z"/>
<path d="M3300 580 c0 -17 7 -20 40 -20 l40 0 0 -120 c0 -113 1 -120 20 -120
19 0 20 7 20 120 l0 120 40 0 c33 0 40 3 40 20 0 19 -7 20 -100 20 -93 0 -100
-1 -100 -20z"/>
<path d="M223 467 c-46 -15 -63 -26 -63 -39 0 -23 2 -23 81 3 76 26 71 22 63
43 -7 19 -3 19 -81 -7z"/>
<path d="M635 482 c-17 -17 3 -34 61 -52 66 -20 84 -19 84 4 0 12 -135 57
-145 48z"/>
<path d="M235 407 c-47 -17 -60 -26 -57 -39 4 -22 2 -22 84 4 49 16 68 26 66
37 -5 23 -26 22 -93 -2z"/>
<path d="M610 411 c0 -15 15 -24 62 -40 76 -26 88 -26 88 -2 0 15 -15 24 -62
40 -76 26 -88 26 -88 2z"/>
<path d="M255 347 c-47 -17 -60 -26 -57 -39 2 -10 5 -18 6 -18 3 0 105 35 133
45 15 5 6 35 -11 34 -6 0 -38 -10 -71 -22z"/>
<path d="M594 359 c-3 -6 -2 -14 2 -19 14 -12 132 -49 138 -42 17 16 0 32 -56
51 -72 24 -75 25 -84 10z"/>
<path d="M390 235 c0 -68 2 -75 20 -75 18 0 20 7 20 75 0 68 -2 75 -20 75 -18
0 -20 -7 -20 -75z"/>
<path d="M450 235 c0 -68 2 -75 20 -75 18 0 20 7 20 75 0 68 -2 75 -20 75 -18
0 -20 -7 -20 -75z"/>
<path d="M510 235 c0 -68 2 -75 20 -75 18 0 20 7 20 75 0 68 -2 75 -20 75 -18
0 -20 -7 -20 -75z"/>
</g>
</svg>
